<?xml version="1.0" encoding="utf-8"?>
<!-- Generator: Adobe Illustrator 24.0.1, SVG Export Plug-In . SVG Version: 6.00 Build 0)  -->
<svg version="1.1" id="Layer_1" xmlns="http://www.w3.org/2000/svg" xmlns:xlink="http://www.w3.org/1999/xlink" x="0px" y="0px"
	 viewBox="0 0 256 256" style="enable-background:new 0 0 256 256;" xml:space="preserve">
<style type="text/css">
	.st0{fill:#4A90E2;}
</style>
<path class="st0" d="M144.9,128c0,9.4-7.6,16.9-16.9,16.9s-16.9-7.6-16.9-16.9c0-12.7-4.2-16.9-16.9-16.9s-16.9,4.2-16.9,16.9
	c0,9.4-7.6,16.9-16.9,16.9s-16.9-7.6-16.9-16.9c0-9.4,7.6-16.9,16.9-16.9c12.7,0,16.9-4.2,16.9-16.9c0-9.4,7.6-16.9,16.9-16.9
	s16.9,7.6,16.9,16.9c0,12.7,4.2,16.9,16.9,16.9C137.3,111.1,144.9,118.7,144.9,128z"/>
<path class="st0" d="M26.4,178.7c9.3,0,16.9-7.6,16.9-16.9s-7.6-16.9-16.9-16.9s-16.9,7.6-16.9,16.9
	C9.5,171.2,17.1,178.7,26.4,178.7z"/>
<path class="st0" d="M246.5,94.2c0,9.4-7.6,16.9-16.9,16.9c-12.7,0-16.9,4.2-16.9,16.9c0,9.4-7.6,16.9-16.9,16.9
	c-12.7,0-16.9,4.2-16.9,16.9c0,9.4-7.6,16.9-16.9,16.9c-9.3,0-16.9-7.6-16.9-16.9c0-9.4,7.6-16.9,16.9-16.9
	c12.7,0,16.9-4.2,16.9-16.9c0-9.4,7.6-16.9,16.9-16.9c12.7,0,16.9-4.2,16.9-16.9c0-9.4,7.6-16.9,16.9-16.9S246.5,84.8,246.5,94.2z"
	/>
</svg>
